<svg width="34" height="43" viewBox="0 0 34 43" fill="none" xmlns="http://www.w3.org/2000/svg">
<g id="Group 6483">
<path id="Ellipse 47" d="M33.3469 16.6735C33.3469 25.882 16.6735 43 16.6735 43C16.6735 43 0 25.882 0 16.6735C0 7.46497 7.46497 0 16.6735 0C25.882 0 33.3469 7.46497 33.3469 16.6735Z" fill="white"/>
<g id="Group 6476">
<path id="Vector" d="M16.6153 20.5061C15.3251 20.5061 14.0638 20.1235 12.991 19.4067C11.9183 18.6899 11.0821 17.6711 10.5884 16.4791C10.0947 15.2871 9.96547 13.9754 10.2172 12.71C10.4689 11.4446 11.0902 10.2822 12.0025 9.3699C12.9148 8.45758 14.0772 7.83629 15.3426 7.58458C16.608 7.33287 17.9197 7.46206 19.1117 7.9558C20.3037 8.44954 21.3225 9.28567 22.0393 10.3584C22.7561 11.4312 23.1387 12.6925 23.1387 13.9827C23.1368 15.7122 22.4489 17.3703 21.2259 18.5933C20.0029 19.8163 18.3448 20.5042 16.6153 20.5061ZM16.6153 9.9035C15.8085 9.9035 15.0198 10.1427 14.349 10.591C13.6782 11.0392 13.1554 11.6763 12.8466 12.4216C12.5379 13.167 12.4571 13.9872 12.6145 14.7785C12.7719 15.5698 13.1604 16.2966 13.7309 16.8671C14.3014 17.4376 15.0282 17.8261 15.8195 17.9835C16.6108 18.1409 17.4309 18.0601 18.1763 17.7513C18.9217 17.4426 19.5588 16.9198 20.007 16.2489C20.4552 15.5781 20.6944 14.7895 20.6944 13.9827C20.6933 12.9012 20.2631 11.8643 19.4984 11.0996C18.7337 10.3348 17.6968 9.90467 16.6153 9.9035Z" fill="#179AA1"/>
<path id="Vector_2" d="M10.1031 23.2367L10.1128 25.6575L23.1332 25.6052L23.1234 23.1844L10.1031 23.2367Z" fill="#179AA1"/>
</g>
</g>
</svg>
