<svg width="70" height="70" viewBox="0 0 70 70" fill="none" xmlns="http://www.w3.org/2000/svg">
<g id="basket-piala-sport-svgrepo-com 1">
<path id="Vector" d="M52.4562 67.8125H17.5437C17.0155 67.8125 16.498 67.6636 16.0505 67.383C15.603 67.1023 15.2436 66.7013 15.0135 66.2258C14.7835 65.7503 14.6921 65.2196 14.7498 64.6945C14.8075 64.1694 15.012 63.6712 15.3398 63.257L20.3465 56.9297C20.9012 56.2287 21.6078 55.6627 22.413 55.2743C23.2181 54.8859 24.101 54.6853 24.9949 54.6875H45.0324C45.9264 54.6853 46.8092 54.8859 47.6144 55.2743C48.4195 55.6627 49.1261 56.2287 49.6808 56.9297L54.6875 63.257C55.0168 63.6731 55.2216 64.1738 55.2784 64.7013C55.3351 65.2288 55.2413 65.7617 55.0079 66.2382C54.7745 66.7146 54.411 67.1154 53.9595 67.394C53.508 67.6726 52.9868 67.8177 52.4562 67.8125Z" stroke="black" stroke-width="2.1875" stroke-miterlimit="10"/>
<path id="Vector_2" d="M39.3505 41.1989L44.1055 54.6875H25.8946L30.6497 41.1989" stroke="black" stroke-width="2.1875" stroke-miterlimit="10"/>
<path id="Vector_3" d="M27.0703 61.25H42.9297" stroke="black" stroke-width="2.1875" stroke-miterlimit="10"/>
<path id="Vector_4" d="M34.989 41.7183C45.8727 41.7183 54.6956 32.8954 54.6956 22.0117C54.6956 11.128 45.8727 2.30505 34.989 2.30505C24.1053 2.30505 15.2823 11.128 15.2823 22.0117C15.2823 32.8954 24.1053 41.7183 34.989 41.7183Z" stroke="#179AA1" stroke-width="2.1875" stroke-miterlimit="10"/>
<path id="Vector_5" d="M49.0329 35.9433L21.0438 7.95422" stroke="#179AA1" stroke-width="2.1875" stroke-miterlimit="10"/>
<path id="Vector_6" d="M49.0329 7.95422L21.0438 35.9433" stroke="#179AA1" stroke-width="2.1875" stroke-miterlimit="10"/>
<path id="Vector_7" d="M54.7175 21.0738C52.153 21.5726 49.5052 21.4341 47.0067 20.6705C44.5082 19.9069 42.2354 18.5415 40.3879 16.6942C38.5404 14.847 37.1747 12.5744 36.4107 10.076C35.6467 7.5776 35.5078 4.92985 36.0062 2.36523" stroke="#179AA1" stroke-width="2.1875" stroke-miterlimit="10"/>
<path id="Vector_8" d="M34.0675 41.7238C34.5652 39.1593 34.4259 36.5118 33.6616 34.0138C32.8974 31.5157 31.5317 29.2434 29.6843 27.3963C27.837 25.5492 25.5645 24.1839 23.0663 23.42C20.5681 22.6561 17.9206 22.5171 15.3562 23.0152" stroke="#179AA1" stroke-width="2.1875" stroke-miterlimit="10"/>
</g>
</svg>
