<svg width="70" height="70" viewBox="0 0 70 70" fill="none" xmlns="http://www.w3.org/2000/svg">
<g id="bus-svgrepo-com 1">
<g id="Group">
<g id="Group_2">
<path id="Vector" d="M63.7554 12.2042H62.0535V6.04051C62.0535 3.36191 59.8025 1.07912 57.1246 0.951836L38.6388 0.073418C36.577 -0.0244727 33.1989 -0.0244727 31.1298 0.073418L12.742 0.951836C10.0641 1.0798 7.94683 3.36205 7.94683 6.04051V12.2042H5.95963C3.58673 12.2042 1.79832 14.1243 1.79832 16.4984V25.1039C1.79832 27.478 3.58673 29.42 5.95963 29.42H7.94683V58.9128C7.94683 61.884 9.79144 64.3701 12.8656 64.945V66.3C12.8656 68.3342 14.3766 70 16.4096 70H18.8738C20.9069 70 22.7032 68.3342 22.7032 66.3V65.0813H47.2971V66.3C47.2971 68.3342 48.8081 70 50.8411 70H53.3053C55.3385 70 57.1347 68.3342 57.1347 66.3V64.945C59.9015 64.3701 62.0534 61.884 62.0534 58.9128V29.42H63.7553C66.1282 29.42 68.2018 27.478 68.2018 25.1039V16.4984C68.2021 14.1243 66.1284 12.2042 63.7554 12.2042ZM7.94683 26.9605H5.95963C4.94244 26.9605 4.25775 26.1216 4.25775 25.1038V16.4983C4.25775 15.4805 4.94257 14.6635 5.95963 14.6635H7.94683V26.9605ZM27.622 2.70895L31.3009 2.53039C32.3023 2.4824 33.5808 2.45834 34.8945 2.45834C36.2082 2.45834 37.5754 2.4824 38.5746 2.53039L42.3783 2.70895V6.56236C42.3783 7.63301 41.1309 8.51512 39.7728 8.51512H29.9424C28.5843 8.51512 27.622 7.63287 27.622 6.56236V2.70895ZM20.2439 66.3C20.2439 66.9778 19.5512 67.5406 18.8739 67.5406H16.4097C15.7216 67.5406 15.325 66.9892 15.325 66.3V65.0813H20.2437L20.2439 66.3ZM54.6754 66.3C54.6754 66.9778 53.9828 67.5406 53.3055 67.5406H50.8412C50.1531 67.5406 49.7565 66.9892 49.7565 66.3V65.0813H54.6752V66.3H54.6754ZM59.5941 58.9128C59.5941 60.9518 57.7919 62.6218 55.7529 62.6218H48.3843H21.3309H13.9623C11.9233 62.6218 10.4063 60.9518 10.4063 58.9128V34.838C14.0953 36.1657 24.5169 39.2466 34.9288 39.2466C35.2926 39.2466 35.6205 39.2422 35.9835 39.235C36.0294 39.2402 36.057 39.2466 36.1039 39.2466C36.1727 39.2466 36.305 39.2387 36.375 39.2268C46.2807 38.9658 55.5978 36.1045 59.5942 34.838V58.9128H59.5941ZM59.5941 13.4229V28.1792V32.2332C57.1347 33.0836 49.3269 35.6057 40.6966 36.4849C41.5373 35.3778 41.9161 34.0312 42.1117 33.1089H52.0733C52.7531 33.1089 53.303 32.5583 53.303 31.8793C53.303 31.2002 52.753 30.6496 52.0733 30.6496H37.317C36.6374 30.6496 36.0874 31.2002 36.0874 31.8793C36.0874 32.5583 36.6374 33.1089 37.317 33.1089H39.5948C39.2759 34.3386 38.3935 36.1002 35.9649 36.7799C35.5959 36.788 35.2981 36.7896 34.9288 36.7896C24.196 36.7896 13.1732 33.2704 10.4063 32.2331V28.1791V13.4229V6.04051C10.4063 4.65527 11.5352 3.47484 12.9222 3.40881L25.1627 2.82611V6.56236C25.1627 8.9894 27.2285 10.9746 29.9426 10.9746H39.7729C42.4869 10.9746 44.8379 8.9894 44.8379 6.56236V2.82611L57.0785 3.40881C58.4655 3.4743 59.5944 4.65527 59.5944 6.04051V13.4229H59.5941ZM65.7426 25.1039C65.7426 26.1216 64.7726 26.9607 63.7554 26.9607H62.0535V14.6636H63.7554C64.7726 14.6636 65.7426 15.4807 65.7426 16.4984V25.1039Z" fill="#262626"/>
</g>
</g>
<g id="Group_3">
<g id="Group_4">
<path id="Vector_2" d="M24.6597 15.0131C24.1794 14.5328 23.4012 14.5328 22.9208 15.0131L16.7723 21.1616C16.292 21.6419 16.292 22.4201 16.7723 22.9005C17.0125 23.1407 17.3271 23.2607 17.6417 23.2607C17.9563 23.2607 18.271 23.1406 18.5111 22.9005L24.6596 16.752C25.1402 16.2715 25.1402 15.4933 24.6597 15.0131Z" fill="black"/>
</g>
</g>
<g id="Group_5">
<g id="Group_6">
<path id="Vector_3" d="M30.8082 16.2425C30.3279 15.7623 29.5497 15.7623 29.0692 16.2425L18.002 27.3098C17.5217 27.7901 17.5217 28.5683 18.002 29.0487C18.2422 29.2889 18.5568 29.409 18.8714 29.409C19.186 29.409 19.5007 29.2888 19.7408 29.0487L30.808 17.9815C31.2885 17.501 31.2885 16.7228 30.8082 16.2425Z" fill="black"/>
</g>
</g>
<g id="Group_7">
<g id="Group_8">
<path id="Vector_4" d="M52.0756 46.6356H48.384H47.1519H22.5629H21.3308H17.6393C15.6061 46.6356 14.0952 48.2783 14.0952 50.3113V52.7755C14.0952 54.8085 15.6063 56.4732 17.6393 56.4732H21.3308H22.5629H47.1521H48.3842H52.0757C54.1088 56.4732 55.9051 54.8087 55.9051 52.7755V50.3113C55.9049 48.2783 54.1087 46.6356 52.0756 46.6356ZM23.9328 52.7755C23.9328 53.4636 23.251 54.0138 22.5629 54.0138H21.3308H17.6393C16.962 54.0138 16.5545 53.4521 16.5545 52.7755V50.3113C16.5545 49.6232 16.9512 49.0949 17.6393 49.0949H21.3308H22.5629C23.2402 49.0949 23.9328 49.6345 23.9328 50.3113V52.7755ZM43.608 50.3113V52.7755C43.608 53.2063 43.5435 53.7063 43.6798 54.0138H26.0349C26.1715 53.7063 26.3921 53.2063 26.3921 52.7755V50.3113C26.3921 49.8805 26.1715 49.4024 26.0349 49.0949H43.6797C43.5434 49.4024 43.608 49.8805 43.608 50.3113ZM53.4455 52.7755C53.4455 53.4636 52.7637 54.0138 52.0756 54.0138H48.384H47.1519C46.4746 54.0138 46.0672 53.4521 46.0672 52.7755V50.3113C46.0672 49.6232 46.4638 49.0949 47.1519 49.0949H48.384H52.0756C52.7529 49.0949 53.4455 49.6345 53.4455 50.3113V52.7755Z" fill="#179AA1"/>
</g>
</g>
</g>
</svg>
