<svg width="104" height="104" viewBox="0 0 104 104" fill="none" xmlns="http://www.w3.org/2000/svg">
<g id="book-svgrepo-com 1">
<path id="Vector" d="M93.3947 28.9729H88.7553V31.8846H93.3947C94.179 31.8846 94.4747 32.7332 94.4747 33.5175V71.9292C94.4747 75.8513 91.6262 78.7833 87.7042 78.7833H59.2509C56.8974 78.7833 54.647 80.957 54.647 83.3105V83.7748H48.9276V83.3105C48.9276 80.957 47.3778 78.7833 45.0243 78.7833H16.5711C12.6491 78.7833 9.1001 75.8513 9.1001 71.9292V33.5175C9.1001 32.7332 10.0963 31.8846 10.8806 31.8846H14.8195V28.9729H10.8806C8.52713 28.9729 6.29242 31.1639 6.29242 33.5175V71.9292C6.29242 77.4206 11.0799 81.591 16.5711 81.591H45.0243C45.8086 81.591 46.12 82.5262 46.12 83.3105V84.0217C46.12 85.5909 47.723 86.5823 49.2923 86.5823H54.983C56.5522 86.5823 57.4548 85.5909 57.4548 84.0217V83.3105C57.4548 82.5262 58.4667 81.591 59.251 81.591H87.7041C93.1954 81.591 97.2822 77.4205 97.2822 71.9292V33.5175C97.2822 31.164 95.7482 28.9729 93.3947 28.9729Z" fill="#179AA1"/>
<path id="Vector_2" d="M27.61 28.9729H44.6641V31.8846H27.61V28.9729ZM27.61 35.4202H44.6641V38.2279H27.61V35.4202ZM27.61 41.7635H44.6641V44.6751H27.61V41.7635ZM58.9105 28.9729H75.9646V31.8846H58.9105V28.9729ZM58.9105 35.4202H75.9646V38.2279H58.9105V35.4202ZM58.9105 41.7635H75.9646V44.6751H58.9105V41.7635Z" fill="#179AA1"/>
<path id="Vector_3" d="M85.5701 23.3576H83.7639V22.8476C83.7639 19.7099 81.5947 16.9103 78.4569 16.9103H61.3849C57.4313 16.9103 53.981 19.0766 52.1377 22.2796C50.2944 19.0766 46.844 16.9103 42.8904 16.9103H25.8185C22.6808 16.9103 19.811 19.7097 19.811 22.8476V23.3576H18.7053C15.96 23.3576 13.3637 26.1118 13.3637 29.2495V67.6613C13.3637 71.5833 16.7575 74.5198 20.4836 74.5198H46.4471C48.8006 74.5198 50.7151 76.5996 50.7151 78.7834H53.5604C53.5604 76.5996 55.4749 74.5198 57.8284 74.5198H83.7919C87.518 74.5198 90.2112 71.5833 90.2112 67.6613V29.2495C90.211 26.1118 88.3153 23.3576 85.5701 23.3576ZM61.3849 19.718H78.4568C80.026 19.718 80.9561 21.2783 80.9561 22.8476V63.3933C80.9561 64.9625 80.026 65.9928 78.4568 65.9928H61.3849C58.292 65.9928 55.3749 67.5694 53.1912 69.6788V27.8269C53.1912 23.5124 57.0704 19.718 61.3849 19.718ZM22.6186 22.8476C22.6186 21.2784 24.2492 19.718 25.8184 19.718H42.8903C47.2048 19.718 50.3835 23.5123 50.3835 27.8269V69.6619C48.9277 67.5578 45.9787 65.9928 42.8903 65.9928H25.8185C24.2493 65.9928 22.6187 64.9626 22.6187 63.3933V22.8476H22.6186ZM20.4835 71.7121C18.3266 71.7121 16.1713 70.0147 16.1713 67.6613V29.2495C16.1713 27.7074 17.5485 26.1652 18.7052 26.1652H19.8109V63.3933C19.8109 66.531 22.6807 68.8005 25.8184 68.8005H42.8903C45.6054 68.8005 48.0001 70.225 49.4037 72.3309C48.5019 71.9164 47.5026 71.7121 46.4469 71.7121H20.4835ZM87.2994 67.6613C87.2994 70.0147 85.9486 71.7121 83.7917 71.7121H57.8282C56.7725 71.7121 55.7732 71.9165 54.8713 72.3309C56.275 70.225 58.6697 68.8005 61.3848 68.8005H78.4567C81.5945 68.8005 83.7636 66.531 83.7636 63.3933V26.1652H85.5699C86.7265 26.1652 87.2992 27.7074 87.2992 29.2495V67.6613H87.2994Z" fill="#262626"/>
<path id="Vector_4" d="M44.6641 55.3152C44.6641 56.1009 44.0272 56.7379 43.2415 56.7379H29.0327C28.247 56.7379 27.61 56.1009 27.61 55.3152V49.6335C27.61 48.8477 28.247 48.2108 29.0327 48.2108H43.2415C44.0272 48.2108 44.6641 48.8477 44.6641 49.6335V55.3152ZM75.9646 55.3152C75.9646 56.1009 75.3277 56.7379 74.542 56.7379H60.3332C59.5475 56.7379 58.9105 56.1009 58.9105 55.3152V49.6335C58.9105 48.8477 59.5475 48.2108 60.3332 48.2108H74.542C75.3277 48.2108 75.9646 48.8477 75.9646 49.6335V55.3152Z" fill="#E0E0E0"/>
</g>
</svg>
