<svg width="88" height="88" viewBox="0 0 88 88" fill="none" xmlns="http://www.w3.org/2000/svg">
<g id="credit-card-payment-svgrepo-com 1" clip-path="url(#clip0_662_350)">
<g id="Group">
<g id="Group_2">
<path id="Vector" d="M68.5386 12.7479H7.05994C3.16697 12.7479 0 15.9152 0 19.8079V56.1058C0 59.9988 3.16697 63.1657 7.05994 63.1657H68.5386C72.4316 63.1657 75.5985 59.9988 75.5985 56.1058V19.8079C75.5985 15.9151 72.4314 12.7479 68.5386 12.7479ZM72.5208 56.1058C72.5208 58.3017 70.7343 60.088 68.5386 60.088H7.05994C4.86406 60.088 3.07777 58.3017 3.07777 56.1058V37.9848H72.5208V56.1058ZM72.5208 23.4918H23.7927C22.9427 23.4918 22.2539 24.1809 22.2539 25.0306C22.2539 25.8805 22.9429 26.5694 23.7927 26.5694H72.5208V34.9071H3.07777V26.5694H18.663C19.513 26.5694 20.2018 25.8804 20.2018 25.0306C20.2018 24.1809 19.5128 23.4918 18.663 23.4918H3.07777V19.808C3.07777 17.6123 4.86406 15.8259 7.05994 15.8259H68.5386C70.7345 15.8259 72.5208 17.6122 72.5208 19.808V23.4918Z" fill="#262626"/>
</g>
</g>
<g id="Group_3">
<g id="Group_4">
<path id="Vector_2" d="M86.4612 61.5796C85.6113 61.5796 84.9224 62.2686 84.9224 63.1184V67.6916C84.9224 70.1632 82.9117 72.1741 80.4399 72.1741H19.9647C17.4917 72.1741 15.4799 70.1634 15.4799 67.6916V66.1979C15.4799 65.3479 14.7909 64.6591 13.9411 64.6591C13.0912 64.6591 12.4023 65.3481 12.4023 66.1979V67.6916C12.4023 71.8603 15.7948 75.2519 19.9648 75.2519H80.4399C84.6086 75.2519 88.0002 71.8605 88.0002 67.6916V63.1184C88 62.2686 87.311 61.5796 86.4612 61.5796Z" fill="#179AA1"/>
</g>
</g>
<g id="Group_5">
<g id="Group_6">
<path id="Vector_3" d="M80.4397 24.8342H78.6304C77.7804 24.8342 77.0916 25.5233 77.0916 26.373C77.0916 27.2228 77.7806 27.9118 78.6304 27.9118H80.4397C82.9112 27.9118 84.9222 29.9236 84.9222 32.3966V57.9889C84.9222 58.8388 85.6112 59.5277 86.461 59.5277C87.3109 59.5277 87.9998 58.8387 87.9998 57.9889V32.3966C87.9999 28.2267 84.6085 24.8342 80.4397 24.8342Z" fill="#179AA1"/>
</g>
</g>
<g id="Group_7">
<g id="Group_8">
<path id="Vector_4" d="M31.7559 41.9579H8.92527C8.07535 41.9579 7.38647 42.6469 7.38647 43.4967C7.38647 44.3466 8.07552 45.0355 8.92527 45.0355H31.7559C32.6059 45.0355 33.2947 44.3464 33.2947 43.4967C33.2949 42.6469 32.6059 41.9579 31.7559 41.9579Z" fill="#262626"/>
</g>
</g>
<g id="Group_9">
<g id="Group_10">
<path id="Vector_5" d="M22.0192 48.3372H8.92527C8.07535 48.3372 7.38647 49.0262 7.38647 49.876C7.38647 50.7257 8.07552 51.4148 8.92527 51.4148H22.0192C22.8691 51.4148 23.558 50.7257 23.558 49.876C23.558 49.0262 22.8693 48.3372 22.0192 48.3372Z" fill="#262626"/>
</g>
</g>
</g>
<defs>
<clipPath id="clip0_662_350">
<rect width="88" height="88" fill="white"/>
</clipPath>
</defs>
</svg>
