<svg width="720" height="105" viewBox="0 0 720 105" fill="none" xmlns="http://www.w3.org/2000/svg">
<path d="M62.9565 18.9253H27.0573C18.8205 18.9253 14.6949 23.5117 14.6949 31.0933V53.7877C14.6949 61.3693 18.8205 65.9557 27.0573 65.9557H62.9565C71.2005 65.9557 74.7286 61.3693 74.7286 53.5285V50.4397H64.1517V56.7181H25.2717V28.1269H64.1517V36.0469H74.7213V31.0069C74.7285 23.4757 71.2005 18.9253 62.9565 18.9253Z" fill="#0E3443"/>
<path d="M461.066 19.1555H416.261V65.7251H426.787L426.83 56.6891H461.066C469.31 56.6891 472.896 52.0955 472.896 44.5859V31.3235C472.896 23.7419 469.31 19.1555 461.066 19.1555ZM462.326 32.0507V47.4083H426.83V28.3931H462.326V32.0507Z" fill="#0E3443"/>
<path d="M646.193 19.1555V28.4003H670.457V65.6891H680.832V28.4003H705.096V19.1555H646.193Z" fill="#0E3443"/>
<path d="M541.238 18.8896L522.166 36.292L503.093 18.8896H489.067L515.153 42.6928L489.65 65.956H503.676L522.166 49.0864L540.655 65.956H554.674L529.178 42.6928L555.257 18.8896H541.238Z" fill="#0E3443"/>
<path d="M313.323 43.6718V41.1806C316.555 39.575 317.751 36.5942 317.751 32.3534V31.1654C317.751 22.9214 313.69 19.199 304.848 19.199H260.64V20.171V41.1806V65.6606H304.848C313.69 65.6606 317.743 61.931 317.743 53.6942V52.4918C317.751 48.251 316.563 45.2702 313.323 43.6718ZM271.21 28.4294H307.375V37.7894H271.21V28.4294ZM307.383 56.4158H271.217V47.0558H307.383V56.4158Z" fill="#0E3443"/>
<path d="M600.725 74.4016C594.401 74.4016 588.219 72.5263 582.96 69.0128C577.702 65.4993 573.604 60.5055 571.184 54.6628C568.763 48.8201 568.13 42.3909 569.364 36.1883C570.598 29.9858 573.643 24.2883 578.115 19.8165C582.587 15.3447 588.284 12.2994 594.487 11.0656C600.689 9.83181 607.118 10.465 612.961 12.8852C618.804 15.3053 623.798 19.4036 627.311 24.6619C630.825 29.9202 632.7 36.1023 632.7 42.4264C632.69 50.9038 629.319 59.0313 623.324 65.0257C617.33 71.0202 609.202 74.3921 600.725 74.4016ZM600.725 22.432C596.77 22.432 592.905 23.6046 589.616 25.8016C586.328 27.9987 583.766 31.1214 582.252 34.7749C580.739 38.4284 580.343 42.4486 581.115 46.3271C581.886 50.2056 583.79 53.7683 586.587 56.5646C589.383 59.3608 592.946 61.2651 596.824 62.0366C600.703 62.8081 604.723 62.4121 608.376 60.8988C612.03 59.3855 615.153 56.8227 617.35 53.5347C619.547 50.2466 620.719 46.3809 620.719 42.4264C620.713 37.1253 618.605 32.043 614.857 28.2945C611.108 24.5461 606.026 22.4377 600.725 22.432Z" fill="#179AA1"/>
<path d="M568.805 87.7846L568.852 99.6501L632.673 99.394L632.625 87.5284L568.805 87.7846Z" fill="#179AA1"/>
<path d="M149.343 65.7685H161.503C161.503 65.7685 131.616 19.3501 131.429 19.0837H120.96C120.773 19.3213 95.7962 57.9637 95.7962 57.9637L90.7562 65.7973H102.924L108.281 57.4597H144L149.343 65.7685ZM114.264 48.1213L126.13 29.6677L137.995 48.1213H114.264Z" fill="#0E3443"/>
<path d="M392.054 19.1555H338.472V28.3931H392.054V19.1555Z" fill="#0E3443"/>
<path d="M392.054 56.4519H338.472V65.6895H392.054V56.4519Z" fill="#0E3443"/>
<path d="M392.054 37.8035H338.472V47.0411H392.054V37.8035Z" fill="#0E3443"/>
<path d="M237.665 19.0046L178.365 19.2422L178.401 28.4942V65.8262H190.08C190.281 65.6606 190.692 65.3294 191.037 65.027L226.137 31.7846L226.929 31.0646V31.7846L227.066 65.8478H232.401H237.816V19.0478L237.665 19.0046ZM189.302 54.2054L189.201 28.487L216.475 28.379L189.302 54.2054Z" fill="#0E3443"/>
</svg>
