<svg width="185" height="27" viewBox="0 0 185 27" fill="none" xmlns="http://www.w3.org/2000/svg">
<g id="&#208;&#156;&#208;&#190;&#208;&#189;&#209;&#130;&#208;&#176;&#208;&#182;&#208;&#189;&#208;&#176;&#209;&#143; &#208;&#190;&#208;&#177;&#208;&#187;&#208;&#176;&#209;&#129;&#209;&#130;&#209;&#140; 1 1">
<path id="Vector" d="M16.1328 4.6123H6.93353C4.82282 4.6123 3.76562 5.78759 3.76562 7.7304V13.5459C3.76562 15.4887 4.82282 16.664 6.93353 16.664H16.1328C18.2454 16.664 19.1494 15.4887 19.1494 13.4795V12.688H16.4391V14.2968H6.47597V6.97025H16.4391V8.99977H19.1476V7.70826C19.1494 5.77836 18.2454 4.6123 16.1328 4.6123Z" fill="white"/>
<path id="Vector_2" d="M118.15 4.67139H106.668V16.605H109.366L109.377 14.2895H118.15C120.262 14.2895 121.181 13.1124 121.181 11.188V7.78948C121.181 5.84667 120.262 4.67139 118.15 4.67139ZM118.473 7.97583V11.9113H109.377V7.03855H118.473V7.97583Z" fill="white"/>
<path id="Vector_3" d="M165.589 4.67139V7.0404H171.807V16.5958H174.466V7.0404H180.683V4.67139H165.589Z" fill="white"/>
<path id="Vector_4" d="M138.694 4.60303L133.807 9.06245L128.919 4.60303H125.325L132.01 10.7027L125.475 16.664H129.069L133.807 12.3411L138.545 16.664H142.137L135.604 10.7027L142.286 4.60303H138.694Z" fill="white"/>
<path id="Vector_5" d="M80.29 10.9539V10.3155C81.1184 9.90404 81.4247 9.1402 81.4247 8.05348V7.74905C81.4247 5.63649 80.3841 4.68262 78.1184 4.68262H66.7899V4.9317V10.3155V16.5886H78.1184C80.3841 16.5886 81.4228 15.6328 81.4228 13.5221V13.214C81.4247 12.1273 81.1202 11.3635 80.29 10.9539ZM69.4984 7.04794H78.766V9.44647H69.4984V7.04794ZM78.7678 14.2195H69.5003V11.821H78.7678V14.2195Z" fill="white"/>
<path id="Vector_6" d="M153.938 18.8279C152.317 18.8279 150.733 18.3474 149.386 17.447C148.038 16.5467 146.988 15.267 146.368 13.7698C145.748 12.2726 145.585 10.6251 145.901 9.03566C146.218 7.44623 146.998 5.98625 148.144 4.84033C149.29 3.69441 150.75 2.91403 152.339 2.59787C153.929 2.28172 155.576 2.44398 157.073 3.06415C158.571 3.68431 159.85 4.73453 160.751 6.08198C161.651 7.42944 162.132 9.01362 162.132 10.6342C162.129 12.8066 161.265 14.8892 159.729 16.4253C158.193 17.9614 156.11 18.8255 153.938 18.8279ZM153.938 5.51055C152.924 5.51055 151.934 5.81105 151.091 6.37404C150.249 6.93703 149.592 7.73724 149.204 8.67346C148.816 9.60968 148.715 10.6399 148.913 11.6338C149.11 12.6276 149.598 13.5406 150.315 14.2571C151.031 14.9737 151.944 15.4617 152.938 15.6594C153.932 15.8571 154.962 15.7556 155.899 15.3678C156.835 14.98 157.635 14.3233 158.198 13.4807C158.761 12.6381 159.061 11.6475 159.061 10.6342C159.06 9.27576 158.52 7.9734 157.559 7.01285C156.599 6.0523 155.296 5.51202 153.938 5.51055Z" fill="white"/>
<path id="Vector_7" d="M145.758 22.2578L145.77 25.2983L162.125 25.2327L162.112 22.1921L145.758 22.2578Z" fill="white"/>
<path id="Vector_8" d="M38.2696 16.616H41.3858C41.3858 16.616 33.7271 4.7211 33.6791 4.65283H30.9965C30.9485 4.71372 24.5481 14.616 24.5481 14.616L23.2566 16.6234H26.3747L27.7474 14.4868H36.9005L38.2696 16.616ZM29.2806 12.0938L32.3212 7.36502L35.3618 12.0938H29.2806Z" fill="white"/>
<path id="Vector_9" d="M100.465 4.67139H86.7346V7.03855H100.465V4.67139Z" fill="white"/>
<path id="Vector_10" d="M100.465 14.229H86.7346V16.5962H100.465V14.229Z" fill="white"/>
<path id="Vector_11" d="M100.465 9.4502H86.7346V11.8174H100.465V9.4502Z" fill="white"/>
<path id="Vector_12" d="M60.9024 4.63232L45.7068 4.69321L45.716 7.06407V16.6305H48.7086C48.7603 16.5881 48.8655 16.5032 48.954 16.4257L57.9485 7.90724L58.1515 7.72274V7.90724L58.1865 16.6361H59.5537H60.9412V4.64339L60.9024 4.63232ZM48.5094 13.6526L48.4835 7.06222L55.4725 7.03455L48.5094 13.6526Z" fill="white"/>
</g>
</svg>
