<svg width="17" height="23" viewBox="0 0 17 23" fill="none" xmlns="http://www.w3.org/2000/svg">
<g id="Group 6497">
<path id="Vector" d="M8.19376 16.3875C6.57319 16.3875 4.98901 15.907 3.64155 15.0066C2.2941 14.1063 1.24388 12.8266 0.623713 11.3294C0.00354699 9.83216 -0.158712 8.18467 0.157446 6.59523C0.473603 5.0058 1.25398 3.54582 2.3999 2.3999C3.54582 1.25398 5.0058 0.473602 6.59523 0.157444C8.18467 -0.158713 9.83216 0.00355025 11.3294 0.623716C12.8266 1.24388 14.1063 2.2941 15.0066 3.64155C15.907 4.98901 16.3875 6.57319 16.3875 8.19376C16.3851 10.3661 15.521 12.4488 13.9849 13.9849C12.4488 15.521 10.3661 16.3851 8.19376 16.3875ZM8.19376 3.07012C7.18041 3.07012 6.1898 3.37062 5.34722 3.93361C4.50464 4.4966 3.84793 5.29681 3.46013 6.23303C3.07234 7.16925 2.97088 8.19944 3.16857 9.19333C3.36627 10.1872 3.85426 11.1002 4.57081 11.8167C5.28736 12.5333 6.2003 13.0212 7.19419 13.2189C8.18808 13.4166 9.21826 13.3152 10.1545 12.9274C11.0907 12.5396 11.8909 11.8829 12.4539 11.0403C13.0169 10.1977 13.3174 9.20712 13.3174 8.19376C13.3159 6.83533 12.7756 5.53297 11.8151 4.57242C10.8545 3.61187 9.55219 3.07159 8.19376 3.07012Z" fill="white"/>
<path id="Vector_2" d="M0.0141614 19.8173L0.0263672 22.8579L16.3805 22.7923L16.3683 19.7517L0.0141614 19.8173Z" fill="white"/>
</g>
</svg>
